<svg width="33" height="33" viewBox="0 0 33 33" fill="#000" xmlns="http://www.w3.org/2000/svg">
<path d="M15.6198 12.9164V8.81719L8.72511 13.4062L11.8041 15.4614L15.6198 12.9164ZM24.9783 17.9879V15.0489L22.7759 16.5184L24.9783 17.9879ZM16.5 0C7.38817 0 0 7.38817 0 16.5C0 25.6118 7.38817 33 16.5 33C25.6118 33 33 25.6118 33 16.5C33 7.38817 25.6118 0 16.5 0ZM26.7388 19.6306C26.7388 19.6711 26.7352 19.7079 26.7315 19.7448C26.7315 19.7595 26.7278 19.7705 26.7241 19.7816C26.7189 19.8219 26.709 19.8614 26.6946 19.8994C26.6873 19.9215 26.6799 19.9436 26.6725 19.9621C26.6652 19.9768 26.6578 19.9915 26.6541 20.0063C26.6431 20.0247 26.6357 20.0468 26.6247 20.0652C26.6173 20.0799 26.6099 20.091 26.5989 20.1057C26.5878 20.1241 26.5731 20.1425 26.5621 20.1609C26.551 20.1757 26.5436 20.1867 26.5326 20.1978C26.5179 20.2125 26.5031 20.2309 26.4884 20.2456C26.4773 20.2567 26.4663 20.2677 26.4516 20.2788C26.4368 20.2935 26.4184 20.3083 26.4 20.3193C26.3853 20.3304 26.3742 20.3414 26.3595 20.3488C26.3558 20.3525 26.3484 20.3561 26.3448 20.3598L16.9862 26.5915C16.8388 26.691 16.6694 26.7388 16.5 26.7388C16.3269 26.7388 16.1575 26.6873 16.0102 26.5915L6.65156 20.3635C6.64788 20.3598 6.64051 20.3561 6.63683 20.3525L6.59632 20.323C6.5779 20.3083 6.56317 20.2972 6.54844 20.2825C6.53739 20.2714 6.52634 20.2604 6.51161 20.2493C6.49688 20.2346 6.48214 20.2199 6.46741 20.2015C6.45648 20.1901 6.44662 20.1778 6.43795 20.1646C6.42321 20.1462 6.41217 20.1278 6.40112 20.1094C6.39375 20.0946 6.3827 20.0836 6.37534 20.0689C6.36429 20.0504 6.35324 20.0283 6.34587 20.0099C6.3385 19.9952 6.33114 19.9805 6.32746 19.9657C6.32009 19.9436 6.31272 19.9215 6.30536 19.9031C6.30167 19.8884 6.29431 19.8737 6.29063 19.8589C6.28326 19.8331 6.27958 19.8111 6.27589 19.7853C6.27221 19.7742 6.27221 19.7595 6.26853 19.7484C6.26484 19.7116 6.26116 19.6711 6.26116 19.6343V13.4026C6.26116 13.3657 6.26484 13.3252 6.26853 13.2884C6.27221 13.2773 6.27221 13.2626 6.27589 13.2516C6.28109 13.2113 6.29098 13.1717 6.30536 13.1337C6.31272 13.1116 6.32009 13.0895 6.32746 13.0711C6.33482 13.0564 6.34219 13.0416 6.34587 13.0269C6.35324 13.0085 6.36429 12.9864 6.37534 12.968C6.3827 12.9532 6.39007 12.9422 6.40112 12.9275C6.42321 12.8943 6.44531 12.8648 6.46741 12.8354C6.48214 12.8206 6.49688 12.8022 6.51161 12.7875C6.52266 12.7765 6.53371 12.7654 6.54844 12.7544C6.56317 12.7396 6.58159 12.7249 6.59632 12.7138C6.61105 12.7028 6.6221 12.6917 6.63683 12.6844C6.64051 12.6807 6.64788 12.677 6.65156 12.6733L16.0102 6.44531C16.3048 6.25011 16.6915 6.25011 16.9862 6.44531L26.3448 12.6733C26.3484 12.677 26.3558 12.6807 26.3595 12.6844L26.4 12.7138L26.4516 12.7544C26.4626 12.7654 26.4737 12.7765 26.4884 12.7875C26.5031 12.8022 26.5179 12.817 26.5326 12.8354C26.5584 12.8648 26.5805 12.8943 26.5989 12.9275C26.6063 12.9422 26.6173 12.9532 26.6247 12.968C26.6357 12.9864 26.6468 13.0048 26.6541 13.0269C26.6615 13.0416 26.6689 13.0564 26.6725 13.0711C26.6799 13.0932 26.6873 13.1153 26.6946 13.1337C26.6983 13.1484 26.7057 13.1632 26.7094 13.1779C26.7167 13.2037 26.7204 13.2258 26.7241 13.2516C26.7278 13.2626 26.7278 13.2773 26.7315 13.2884C26.7352 13.3252 26.7388 13.3657 26.7388 13.4026V19.6306ZM17.3802 20.1204V24.2196L24.2749 19.6306L21.1959 17.5754L17.3802 20.1204ZM8.02165 15.0489V17.9879L10.2241 16.5184L8.02165 15.0489ZM16.5 14.4412L13.3878 16.5184L16.5 18.5956L19.6122 16.5184L16.5 14.4412ZM24.2749 13.4062L17.3802 8.81719V12.9164L21.1959 15.4614L24.2749 13.4062ZM11.8041 17.5754L8.72511 19.6306L15.6198 24.2196V20.1204L11.8041 17.5754Z"/>
</svg>
