<svg width="17" height="17" viewBox="0 0 17 17" fill="none" xmlns="http://www.w3.org/2000/svg">
<circle cx="8.5" cy="8.5" r="8.5" fill="#000F60"/>
<path d="M4 4.4965C4.00082 4.36519 4.04811 4.23951 4.13163 4.14661C4.21516 4.05371 4.32822 4.00105 4.4464 4H12.5536C12.8002 4 13 4.2225 13 4.4965V12.5035C12.9992 12.6348 12.9519 12.7605 12.8684 12.8534C12.7848 12.9463 12.6718 12.999 12.5536 13H4.4464C4.32797 12.9999 4.21442 12.9475 4.13072 12.8544C4.04702 12.7613 4 12.6351 4 12.5035V4.4965ZM5.8 10V11H11.2V10H5.8ZM5.8 6V9H8.5V6H5.8ZM9.4 6V7H11.2V6H9.4ZM9.4 8V9H11.2V8H9.4ZM6.7 7H7.6V8H6.7V7Z" fill="white"/>
</svg>
