<svg width="33" height="33" viewBox="0 0 33 33" fill="#000" xmlns="http://www.w3.org/2000/svg">
<path d="M16.5018 1.41809e-06C7.38454 -0.00378559 0 7.57781 0 16.9355C0 24.3353 4.61948 30.6255 11.0528 32.9356C11.9192 33.1591 11.7865 32.5266 11.7865 32.0949V29.16C6.7836 29.7621 6.58083 26.3614 6.24534 25.7933C5.56698 24.6042 3.96324 24.3012 4.44252 23.7332C5.58172 23.1311 6.74305 23.8847 8.08871 25.9259C9.062 27.4066 10.9607 27.1566 11.9229 26.9105C12.1331 26.0205 12.5828 25.2253 13.2022 24.608C8.01866 23.6537 5.85823 20.4044 5.85823 16.5417C5.85823 14.6671 6.45917 12.944 7.63892 11.5542C6.88683 9.26303 7.70897 7.30135 7.81957 7.00976C9.96157 6.81283 12.1884 8.58515 12.3616 8.72527C13.5783 8.38823 14.9682 8.21024 16.524 8.21024C18.0871 8.21024 19.4807 8.3958 20.7084 8.73663C21.125 8.41095 23.1896 6.88857 25.1804 7.07413C25.2873 7.36573 26.0911 9.28196 25.3832 11.5428C26.5777 12.9364 27.186 14.6747 27.186 16.553C27.186 20.4233 25.0108 23.6764 19.8125 24.6156C20.2578 25.0653 20.6113 25.6017 20.8525 26.1934C21.0937 26.7851 21.2176 27.4203 21.2172 28.0617V32.3221C21.2467 32.663 21.2172 33 21.7702 33C28.2994 30.7392 33 24.4035 33 16.9393C33 7.57781 25.6118 1.41809e-06 16.5018 1.41809e-06Z"/>
</svg>
