<svg width="17" height="17" viewBox="0 0 17 17" fill="none" xmlns="http://www.w3.org/2000/svg">
<circle cx="8.5" cy="8.5" r="8.5" fill="#000F60"/>
<path d="M8.30976 5.28291C9.14952 5.28291 9.9408 5.67095 10.5207 6.27756V6.27935C10.5207 5.98805 10.7087 5.7677 10.9686 5.7677H11.0346C11.4447 5.7677 11.5268 6.17079 11.5268 6.29799L11.5285 10.8252C11.5 11.1218 11.8224 11.2752 12.0015 11.0846C12.6976 10.3382 13.5318 7.24391 11.5681 5.45239C9.73662 3.78018 7.27854 4.05644 5.97165 4.99519C4.5826 5.99558 3.69472 8.20524 4.55716 10.282C5.49901 12.5461 8.19151 13.2215 9.79403 12.5479C10.6053 12.2064 10.9792 13.348 10.136 13.7217C8.86524 14.2867 5.3237 14.2291 3.66963 11.2433C2.55213 9.22641 2.61126 5.67848 5.57635 3.84038C7.84262 2.43332 10.8328 2.82315 12.6354 4.78487C14.5191 6.83759 14.4101 10.6783 12.5711 12.1713C11.7382 12.8503 10.5014 12.1899 10.5104 11.2007L10.5011 10.8782C9.92121 11.4769 9.14952 11.8281 8.30976 11.8281C6.64847 11.8281 5.18586 10.3031 5.18586 8.57322C5.18586 6.82469 6.64847 5.28363 8.30976 5.28363V5.28291ZM10.3994 8.44817C10.3364 7.18085 9.43413 6.41766 8.34379 6.41766H8.30254C7.04583 6.41766 6.3477 7.44958 6.3477 8.61944C6.3477 9.93119 7.19089 10.7596 8.29739 10.7596C9.53244 10.7596 10.3433 9.81761 10.4024 8.70328L10.3994 8.44817Z" fill="white"/>
</svg>
