<svg width="27" height="24" viewBox="0 0 27 24" fill="none" xmlns="http://www.w3.org/2000/svg">
<path d="M13.5005 17.9993C13.3439 17.9992 13.1899 17.9583 13.0539 17.8806L5.17586 13.3779C5.1074 13.3384 5.02975 13.3176 4.9507 13.3176C4.87166 13.3177 4.79401 13.3385 4.72559 13.3781C4.65716 13.4177 4.60037 13.4746 4.56092 13.5431C4.52148 13.6116 4.50077 13.6892 4.50089 13.7683V17.9993C4.50075 18.1599 4.54361 18.3176 4.62501 18.4561C4.70641 18.5946 4.82339 18.7087 4.96381 18.7867L13.0635 23.2865C13.1972 23.3608 13.3476 23.3998 13.5005 23.3998C13.6535 23.3998 13.8039 23.3608 13.9376 23.2865L22.0373 18.7867C22.1777 18.7087 22.2947 18.5946 22.3761 18.4561C22.4575 18.3176 22.5003 18.1599 22.5002 17.9993V13.7683C22.5003 13.6892 22.4796 13.6116 22.4402 13.5431C22.4007 13.4746 22.3439 13.4177 22.2755 13.3781C22.2071 13.3385 22.1294 13.3177 22.0504 13.3176C21.9713 13.3176 21.8937 13.3384 21.8252 13.3779L13.9471 17.8806C13.8111 17.9583 13.6572 17.9992 13.5005 17.9993Z" fill="white"/>
<path d="M26.9955 8.01527V8.00908C26.9809 7.86643 26.9325 7.72931 26.8542 7.60917C26.776 7.48902 26.6701 7.38931 26.5455 7.31836L13.946 0.118634C13.81 0.0408927 13.6561 0 13.4994 0C13.3427 0 13.1888 0.0408927 13.0528 0.118634L0.453272 7.31836C0.315569 7.39709 0.201122 7.51081 0.121523 7.64802C0.0419232 7.78522 0 7.94102 0 8.09964C0 8.25826 0.0419232 8.41406 0.121523 8.55126C0.201122 8.68846 0.315569 8.80219 0.453272 8.88092L13.0528 16.0806C13.1888 16.1584 13.3427 16.1993 13.4994 16.1993C13.6561 16.1993 13.81 16.1584 13.946 16.0806L25.0313 9.74658C25.0485 9.73668 25.0679 9.73148 25.0877 9.7315C25.1075 9.73152 25.1269 9.73676 25.144 9.74669C25.1611 9.75661 25.1753 9.77088 25.1852 9.78804C25.195 9.80521 25.2001 9.82466 25.2001 9.84445V17.9739C25.2001 18.4582 25.5724 18.8739 26.0567 18.8981C26.1784 18.904 26.3 18.8851 26.4142 18.8425C26.5283 18.8 26.6327 18.7347 26.7209 18.6507C26.8091 18.5667 26.8793 18.4656 26.9273 18.3536C26.9752 18.2416 27 18.1211 27 17.9993V8.09964C26.9999 8.07146 26.9984 8.0433 26.9955 8.01527Z" fill="white"/>
</svg>
